<svg xmlns="http://www.w3.org/2000/svg" viewBox="0 0 512 512" role="img" aria-labelledby="title desc">
  <title id="title">Winga Icon</title>
  <desc id="desc">Winga app icon</desc>
  <defs>
    <linearGradient id="bg" x1="0" y1="0" x2="1" y2="1">
      <stop offset="0%" stop-color="#0f172a"/>
      <stop offset="100%" stop-color="#1e293b"/>
    </linearGradient>
    <linearGradient id="accent" x1="0" y1="0" x2="1" y2="1">
      <stop offset="0%" stop-color="#fbbf24"/>
      <stop offset="100%" stop-color="#f59e0b"/>
    </linearGradient>
    <linearGradient id="shine" x1="0" y1="0" x2="1" y2="1">
      <stop offset="0%" stop-color="#ffffff" stop-opacity=".28"/>
      <stop offset="100%" stop-color="#ffffff" stop-opacity="0"/>
    </linearGradient>
  </defs>
  <rect width="512" height="512" rx="120" fill="url(#bg)"/>
  <rect x="48" y="48" width="416" height="416" rx="96" fill="none" stroke="rgba(255,255,255,0.14)" stroke-width="4"/>
  <path d="M162 188h188l-20 152c-3 23-22 40-45 40h-58c-23 0-42-17-45-40l-20-152Z" fill="#111827" stroke="rgba(255,255,255,0.12)" stroke-width="8" stroke-linejoin="round"/>
  <path d="M176 188c0-44 36-80 80-80s80 36 80 80" fill="none" stroke="url(#accent)" stroke-width="22" stroke-linecap="round"/>
  <path d="M198 186c0-32 26-58 58-58s58 26 58 58" fill="none" stroke="rgba(255,255,255,0.18)" stroke-width="8" stroke-linecap="round"/>
  <path d="M184 224h144l-14 98c-2 14-14 24-28 24h-60c-14 0-26-10-28-24l-14-98Z" fill="url(#accent)"/>
  <path d="M214 248h84" stroke="#0f172a" stroke-width="18" stroke-linecap="round"/>
  <path d="M214 282h84" stroke="#0f172a" stroke-width="18" stroke-linecap="round" opacity=".95"/>
  <path d="M184 224h144l-3 22H187z" fill="url(#shine)"/>
  <text x="256" y="420" text-anchor="middle" font-family="Segoe UI, Arial, sans-serif" font-size="50" font-weight="800" fill="#ffffff">Winga</text>
</svg>
